<svg width="177" height="25" viewBox="0 0 177 25" fill="none" xmlns="http://www.w3.org/2000/svg">
    <path d="M59.169 8.23485H54.5293V5.5007H67.1644V8.23485H62.5246V20H59.169V8.23485ZM78.5251 14.4696C78.5251 14.511 78.5044 14.801 78.463 15.3395H70.0327C70.1846 16.03 70.5436 16.5754 71.1098 16.9759C71.6759 17.3763 72.3802 17.5765 73.2225 17.5765C73.8025 17.5765 74.3134 17.4937 74.7553 17.328C75.211 17.1485 75.6322 16.8723 76.0188 16.4995L77.738 18.3637C76.6885 19.565 75.1558 20.1657 73.1397 20.1657C71.8831 20.1657 70.7714 19.9241 69.8048 19.4407C68.8382 18.9436 68.0925 18.2601 67.5678 17.3901C67.0431 16.5202 66.7807 15.5328 66.7807 14.4281C66.7807 13.3372 67.0362 12.3568 67.5471 11.4868C68.0718 10.6031 68.783 9.91953 69.6805 9.43622C70.5919 8.9391 71.6069 8.69055 72.7254 8.69055C73.8163 8.69055 74.8036 8.9253 75.6874 9.3948C76.5712 9.8643 77.2616 10.5409 77.7587 11.4247C78.2697 12.2947 78.5251 13.3096 78.5251 14.4696ZM72.7461 11.1347C72.0142 11.1347 71.3998 11.3418 70.9026 11.7561C70.4055 12.1704 70.1017 12.7365 69.9912 13.4546H75.4803C75.3698 12.7503 75.066 12.1911 74.5689 11.7768C74.0718 11.3487 73.4642 11.1347 72.7461 11.1347ZM84.4255 20.1657C83.5003 20.1657 82.5958 20.0552 81.7121 19.8343C80.8283 19.5995 80.124 19.3096 79.5993 18.9643L80.6764 16.6444C81.1735 16.9621 81.7742 17.2244 82.4784 17.4316C83.1827 17.6249 83.8731 17.7215 84.5498 17.7215C85.9169 17.7215 86.6004 17.3832 86.6004 16.7066C86.6004 16.389 86.414 16.1611 86.0411 16.023C85.6683 15.885 85.0952 15.7676 84.3219 15.6709C83.4105 15.5328 82.658 15.374 82.0642 15.1945C81.4704 15.015 80.9526 14.6974 80.5107 14.2417C80.0826 13.786 79.8686 13.137 79.8686 12.2947C79.8686 11.5904 80.0688 10.969 80.4693 10.4305C80.8835 9.87811 81.4773 9.45003 82.2506 9.14624C83.0377 8.84244 83.9629 8.69055 85.0262 8.69055C85.8133 8.69055 86.5935 8.7803 87.3668 8.95982C88.1539 9.12552 88.8029 9.36027 89.3138 9.66407L88.2367 11.9632C87.2563 11.4109 86.1861 11.1347 85.0262 11.1347C84.3357 11.1347 83.8179 11.2314 83.4727 11.4247C83.1275 11.618 82.9549 11.8666 82.9549 12.1704C82.9549 12.5156 83.1413 12.7573 83.5141 12.8953C83.887 13.0334 84.4807 13.1646 85.2955 13.2889C86.2068 13.4408 86.9525 13.6065 87.5325 13.786C88.1125 13.9517 88.6165 14.2624 89.0446 14.7181C89.4726 15.1738 89.6867 15.809 89.6867 16.6237C89.6867 17.3142 89.4795 17.9287 89.0653 18.4672C88.651 19.0058 88.0434 19.4269 87.2425 19.7307C86.4554 20.0207 85.5164 20.1657 84.4255 20.1657ZM98.8678 19.4615C98.5502 19.6962 98.1567 19.8757 97.6872 20C97.2315 20.1105 96.7482 20.1657 96.2372 20.1657C94.9116 20.1657 93.8828 19.8274 93.151 19.1508C92.4329 18.4741 92.0739 17.4799 92.0739 16.168V11.5904H90.3547V9.10481H92.0739V6.39137H95.3052V9.10481H98.0807V11.5904H95.3052V16.1266C95.3052 16.5961 95.4225 16.9621 95.6573 17.2244C95.9058 17.473 96.2511 17.5973 96.6929 17.5973C97.2039 17.5973 97.6388 17.4592 97.9979 17.183L98.8678 19.4615ZM109.779 8.23485H105.139V5.5007H117.774V8.23485H113.135V20H109.779V8.23485ZM123.28 8.69055C125.006 8.69055 126.332 9.10481 127.257 9.93334C128.183 10.7481 128.645 11.984 128.645 13.641V20H125.621V18.6122C125.013 19.6479 123.881 20.1657 122.224 20.1657C121.368 20.1657 120.622 20.0207 119.987 19.7307C119.366 19.4407 118.889 19.0403 118.558 18.5294C118.226 18.0184 118.061 17.4385 118.061 16.7894C118.061 15.7538 118.447 14.9391 119.221 14.3453C120.008 13.7515 121.216 13.4546 122.845 13.4546H125.414C125.414 12.7503 125.2 12.2118 124.772 11.839C124.344 11.4523 123.702 11.259 122.845 11.259C122.252 11.259 121.665 11.3557 121.085 11.549C120.519 11.7285 120.035 11.9771 119.635 12.2947L118.475 10.0369C119.082 9.60883 119.807 9.27742 120.65 9.04267C121.506 8.80792 122.383 8.69055 123.28 8.69055ZM123.032 17.9908C123.584 17.9908 124.074 17.8665 124.502 17.618C124.931 17.3556 125.234 16.9759 125.414 16.4787V15.3395H123.198C121.872 15.3395 121.209 15.7745 121.209 16.6444C121.209 17.0587 121.368 17.3901 121.685 17.6387C122.017 17.8734 122.466 17.9908 123.032 17.9908ZM135.319 20.1657C134.394 20.1657 133.489 20.0552 132.605 19.8343C131.721 19.5995 131.017 19.3096 130.492 18.9643L131.57 16.6444C132.067 16.9621 132.667 17.2244 133.372 17.4316C134.076 17.6249 134.766 17.7215 135.443 17.7215C136.81 17.7215 137.494 17.3832 137.494 16.7066C137.494 16.389 137.307 16.1611 136.934 16.023C136.561 15.885 135.988 15.7676 135.215 15.6709C134.304 15.5328 133.551 15.374 132.957 15.1945C132.364 15.015 131.846 14.6974 131.404 14.2417C130.976 13.786 130.762 13.137 130.762 12.2947C130.762 11.5904 130.962 10.969 131.362 10.4305C131.777 9.87811 132.371 9.45003 133.144 9.14624C133.931 8.84244 134.856 8.69055 135.919 8.69055C136.706 8.69055 137.487 8.7803 138.26 8.95982C139.047 9.12552 139.696 9.36027 140.207 9.66407L139.13 11.9632C138.15 11.4109 137.079 11.1347 135.919 11.1347C135.229 11.1347 134.711 11.2314 134.366 11.4247C134.021 11.618 133.848 11.8666 133.848 12.1704C133.848 12.5156 134.034 12.7573 134.407 12.8953C134.78 13.0334 135.374 13.1646 136.189 13.2889C137.1 13.4408 137.846 13.6065 138.426 13.786C139.006 13.9517 139.51 14.2624 139.938 14.7181C140.366 15.1738 140.58 15.809 140.58 16.6237C140.58 17.3142 140.373 17.9287 139.958 18.4672C139.544 19.0058 138.937 19.4269 138.136 19.7307C137.349 20.0207 136.41 20.1657 135.319 20.1657ZM147.358 15.6295L145.805 17.1623V20H142.574V4.63074H145.805V13.3303L150.527 8.85625H154.38L149.74 13.5789L154.794 20H150.88L147.358 15.6295Z" fill="white" />
    <rect x="6.10352e-05" y="11.2444" width="11.8362" height="11.8362" rx="5.91808" fill="white" />
    <rect x="17.1625" y="2.36722" width="11.8362" height="20.7133" rx="5.91808" fill="white" />
</svg>