<svg width="14" height="14" viewBox="0 0 14 14" fill="none" xmlns="http://www.w3.org/2000/svg">
<g opacity="0.5">
<mask id="path-1-inside-1" fill="white">
<path fill-rule="evenodd" clip-rule="evenodd" d="M7.00001 0.333374L9.06001 4.50671L13.6667 5.18004L10.3333 8.42671L11.12 13.0134L7.00001 10.8467L2.88001 13.0134L3.66668 8.42671L0.333344 5.18004L4.94001 4.50671L7.00001 0.333374Z"/>
</mask>
<path d="M7.00001 0.333374L14.1737 -3.20762C12.8259 -5.93805 10.045 -7.66663 7.00001 -7.66663C3.95506 -7.66663 1.17412 -5.93805 -0.173648 -3.20762L7.00001 0.333374ZM9.06001 4.50671L1.88635 8.0477C3.05067 10.4065 5.30015 12.0422 7.90299 12.4226L9.06001 4.50671ZM13.6667 5.18004L19.2485 10.9109C21.4295 8.78666 22.2157 5.60864 21.2766 2.71258C20.3376 -0.183483 17.8362 -2.29553 14.8237 -2.73585L13.6667 5.18004ZM10.3333 8.42671L4.75148 2.69584C2.86449 4.53377 2.00319 7.18282 2.44847 9.77905L10.3333 8.42671ZM11.12 13.0134L7.3964 20.094C10.0917 21.5114 13.3581 21.2756 15.8219 19.4858C18.2857 17.696 19.5197 14.6625 19.0049 11.661L11.12 13.0134ZM7.00001 10.8467L10.7236 3.76612C8.39256 2.54024 5.60746 2.54024 3.2764 3.76612L7.00001 10.8467ZM2.88001 13.0134L-5.00486 11.661C-5.51965 14.6625 -4.28569 17.696 -1.82186 19.4858C0.641961 21.2756 3.90829 21.5114 6.60362 20.094L2.88001 13.0134ZM3.66668 8.42671L11.5515 9.77905C11.9968 7.18282 11.1355 4.53377 9.24854 2.69584L3.66668 8.42671ZM0.333344 5.18004L-0.823682 -2.73585C-3.83616 -2.29553 -6.3376 -0.183483 -7.27663 2.71258C-8.21565 5.60864 -7.42946 8.78666 -5.24852 10.9109L0.333344 5.18004ZM4.94001 4.50671L6.09704 12.4226C8.69987 12.0422 10.9494 10.4065 12.1137 8.0477L4.94001 4.50671ZM-0.173648 3.87437L1.88635 8.0477L16.2337 0.965716L14.1737 -3.20762L-0.173648 3.87437ZM7.90299 12.4226L12.5097 13.0959L14.8237 -2.73585L10.217 -3.40918L7.90299 12.4226ZM8.08481 -0.550824L4.75148 2.69584L15.9152 14.1576L19.2485 10.9109L8.08481 -0.550824ZM2.44847 9.77905L3.23514 14.3657L19.0049 11.661L18.2182 7.07436L2.44847 9.77905ZM14.8436 5.93279L10.7236 3.76612L3.2764 17.9273L7.3964 20.094L14.8436 5.93279ZM3.2764 3.76612L-0.8436 5.93279L6.60362 20.094L10.7236 17.9273L3.2764 3.76612ZM10.7649 14.3657L11.5515 9.77905L-4.21819 7.07436L-5.00486 11.661L10.7649 14.3657ZM9.24854 2.69584L5.91521 -0.550824L-5.24852 10.9109L-1.91519 14.1576L9.24854 2.69584ZM1.49037 13.0959L6.09704 12.4226L3.78298 -3.40918L-0.823682 -2.73585L1.49037 13.0959ZM12.1137 8.0477L14.1737 3.87437L-0.173648 -3.20762L-2.23365 0.965716L12.1137 8.0477Z" fill="white" mask="url(#path-1-inside-1)"/>
</g>
</svg>
