<svg width="14" height="14" viewBox="0 0 14 14" fill="none" xmlns="http://www.w3.org/2000/svg">
<mask id="path-1-inside-1" fill="white">
<path fill-rule="evenodd" clip-rule="evenodd" d="M7 0.333313L9.06 4.50665L13.6667 5.17998L10.3333 8.42665L11.12 13.0133L7 10.8466L2.87999 13.0133L3.66666 8.42665L0.333328 5.17998L4.93999 4.50665L7 0.333313Z"/>
</mask>
<path d="M7 0.333313L14.1737 -3.20768C12.8259 -5.93811 10.0449 -7.66669 7 -7.66669C3.95504 -7.66669 1.1741 -5.93811 -0.173664 -3.20768L7 0.333313ZM9.06 4.50665L1.88634 8.04764C3.05065 10.4064 5.30014 12.0421 7.90297 12.4225L9.06 4.50665ZM13.6667 5.17998L19.2485 10.9108C21.4295 8.7866 22.2157 5.60858 21.2766 2.71252C20.3376 -0.183544 17.8362 -2.29559 14.8237 -2.73591L13.6667 5.17998ZM10.3333 8.42665L4.75147 2.69578C2.86448 4.53371 2.00318 7.18276 2.44846 9.77899L10.3333 8.42665ZM11.12 13.0133L7.39639 20.0939C10.0917 21.5113 13.358 21.2756 15.8219 19.4857C18.2857 17.6959 19.5197 14.6625 19.0049 11.661L11.12 13.0133ZM7 10.8466L10.7236 3.76606C8.39254 2.54018 5.60745 2.54018 3.27638 3.76606L7 10.8466ZM2.87999 13.0133L-5.00487 11.661C-5.51966 14.6625 -4.2857 17.6959 -1.82188 19.4857C0.641946 21.2756 3.90828 21.5113 6.60361 20.0939L2.87999 13.0133ZM3.66666 8.42665L11.5515 9.77899C11.9968 7.18276 11.1355 4.53371 9.24852 2.69578L3.66666 8.42665ZM0.333328 5.17998L-0.823697 -2.73591C-3.83618 -2.29559 -6.33762 -0.183544 -7.27664 2.71252C-8.21566 5.60858 -7.42948 8.7866 -5.24853 10.9108L0.333328 5.17998ZM4.93999 4.50665L6.09702 12.4225C8.69985 12.0421 10.9493 10.4064 12.1137 8.04764L4.93999 4.50665ZM-0.173664 3.8743L1.88634 8.04764L16.2337 0.965655L14.1737 -3.20768L-0.173664 3.8743ZM7.90297 12.4225L12.5096 13.0959L14.8237 -2.73591L10.217 -3.40924L7.90297 12.4225ZM8.0848 -0.550885L4.75147 2.69578L15.9152 14.1575L19.2485 10.9108L8.0848 -0.550885ZM2.44846 9.77899L3.23513 14.3657L19.0049 11.661L18.2182 7.0743L2.44846 9.77899ZM14.8436 5.93273L10.7236 3.76606L3.27639 17.9272L7.39639 20.0939L14.8436 5.93273ZM3.27638 3.76606L-0.843615 5.93273L6.60361 20.0939L10.7236 17.9272L3.27638 3.76606ZM10.7649 14.3657L11.5515 9.77899L-4.21821 7.0743L-5.00487 11.661L10.7649 14.3657ZM9.24852 2.69578L5.91519 -0.550885L-5.24853 10.9108L-1.9152 14.1575L9.24852 2.69578ZM1.49035 13.0959L6.09702 12.4225L3.78297 -3.40924L-0.823697 -2.73591L1.49035 13.0959ZM12.1137 8.04764L14.1737 3.8743L-0.173664 -3.20768L-2.23366 0.965655L12.1137 8.04764Z" fill="#FFD450" mask="url(#path-1-inside-1)"/>
</svg>
